<mxfile host="app.diagrams.net" agent="Mozilla/5.0 (Windows NT 10.0; Win64; x64) AppleWebKit/537.36 (KHTML, like Gecko) Chrome/130.0.0.0 Safari/537.36 OPR/115.0.0.0" version="26.0.8">
  <diagram name="Page-1" id="CKTngOEfOdO_CjU0qafL">
    <mxGraphModel grid="1" page="1" gridSize="10" guides="1" tooltips="1" connect="1" arrows="1" fold="1" pageScale="1" pageWidth="827" pageHeight="1169" math="0" shadow="0">
      <root>
        <mxCell id="0" />
        <mxCell id="1" parent="0" />
        <mxCell id="98iDz8GCRPzG8NP3keVo-3" style="edgeStyle=orthogonalEdgeStyle;rounded=0;orthogonalLoop=1;jettySize=auto;html=1;entryX=0.5;entryY=0;entryDx=0;entryDy=0;" edge="1" parent="1" source="98iDz8GCRPzG8NP3keVo-1" target="98iDz8GCRPzG8NP3keVo-4">
          <mxGeometry relative="1" as="geometry">
            <mxPoint x="415" y="150" as="targetPoint" />
          </mxGeometry>
        </mxCell>
        <mxCell id="98iDz8GCRPzG8NP3keVo-1" value="Start" style="ellipse;whiteSpace=wrap;html=1;" vertex="1" parent="1">
          <mxGeometry x="340" y="40" width="150" height="100" as="geometry" />
        </mxCell>
        <mxCell id="98iDz8GCRPzG8NP3keVo-10" style="edgeStyle=orthogonalEdgeStyle;rounded=0;orthogonalLoop=1;jettySize=auto;html=1;exitX=0.5;exitY=1;exitDx=0;exitDy=0;entryX=0.5;entryY=0;entryDx=0;entryDy=0;" edge="1" parent="1" source="98iDz8GCRPzG8NP3keVo-4" target="98iDz8GCRPzG8NP3keVo-9">
          <mxGeometry relative="1" as="geometry" />
        </mxCell>
        <mxCell id="98iDz8GCRPzG8NP3keVo-4" value="Input &lt;code&gt;row&lt;/code&gt; (vector of strings)" style="shape=parallelogram;perimeter=parallelogramPerimeter;whiteSpace=wrap;html=1;fixedSize=1;" vertex="1" parent="1">
          <mxGeometry x="312" y="190" width="206" height="70" as="geometry" />
        </mxCell>
        <mxCell id="98iDz8GCRPzG8NP3keVo-13" style="edgeStyle=orthogonalEdgeStyle;rounded=0;orthogonalLoop=1;jettySize=auto;html=1;exitX=0.5;exitY=1;exitDx=0;exitDy=0;" edge="1" parent="1" source="98iDz8GCRPzG8NP3keVo-7" target="98iDz8GCRPzG8NP3keVo-12">
          <mxGeometry relative="1" as="geometry" />
        </mxCell>
        <mxCell id="98iDz8GCRPzG8NP3keVo-34" style="edgeStyle=orthogonalEdgeStyle;rounded=0;orthogonalLoop=1;jettySize=auto;html=1;exitX=1;exitY=0.5;exitDx=0;exitDy=0;entryX=0.5;entryY=0;entryDx=0;entryDy=0;" edge="1" parent="1" source="98iDz8GCRPzG8NP3keVo-7">
          <mxGeometry relative="1" as="geometry">
            <mxPoint x="518" y="1190" as="targetPoint" />
            <Array as="points">
              <mxPoint x="890" y="445" />
              <mxPoint x="890" y="1169" />
            </Array>
          </mxGeometry>
        </mxCell>
        <mxCell id="98iDz8GCRPzG8NP3keVo-7" value="&amp;nbsp;Is i &amp;lt; rowsize()" style="rhombus;whiteSpace=wrap;html=1;" vertex="1" parent="1">
          <mxGeometry x="326" y="380" width="176" height="130" as="geometry" />
        </mxCell>
        <mxCell id="98iDz8GCRPzG8NP3keVo-11" style="edgeStyle=orthogonalEdgeStyle;rounded=0;orthogonalLoop=1;jettySize=auto;html=1;exitX=0.5;exitY=1;exitDx=0;exitDy=0;entryX=0.5;entryY=0;entryDx=0;entryDy=0;" edge="1" parent="1" source="98iDz8GCRPzG8NP3keVo-9" target="98iDz8GCRPzG8NP3keVo-7">
          <mxGeometry relative="1" as="geometry" />
        </mxCell>
        <mxCell id="98iDz8GCRPzG8NP3keVo-9" value="Loop through &lt;code&gt;row[i]&lt;/code&gt; for &lt;code&gt;i = 0&lt;/code&gt; to &lt;code&gt;row.size() - 1&lt;/code&gt;" style="rounded=0;whiteSpace=wrap;html=1;" vertex="1" parent="1">
          <mxGeometry x="317.5" y="290" width="195" height="60" as="geometry" />
        </mxCell>
        <mxCell id="98iDz8GCRPzG8NP3keVo-19" style="edgeStyle=orthogonalEdgeStyle;rounded=0;orthogonalLoop=1;jettySize=auto;html=1;exitX=1;exitY=0.5;exitDx=0;exitDy=0;entryX=0.5;entryY=0;entryDx=0;entryDy=0;" edge="1" parent="1" source="98iDz8GCRPzG8NP3keVo-12" target="98iDz8GCRPzG8NP3keVo-18">
          <mxGeometry relative="1" as="geometry" />
        </mxCell>
        <mxCell id="xyDk_uZ-OIYQtleUEUWZ-5" style="edgeStyle=orthogonalEdgeStyle;rounded=0;orthogonalLoop=1;jettySize=auto;html=1;exitX=0.5;exitY=1;exitDx=0;exitDy=0;entryX=0.5;entryY=0;entryDx=0;entryDy=0;" edge="1" parent="1" source="98iDz8GCRPzG8NP3keVo-12" target="98iDz8GCRPzG8NP3keVo-14">
          <mxGeometry relative="1" as="geometry" />
        </mxCell>
        <mxCell id="98iDz8GCRPzG8NP3keVo-12" value="Does i != 0" style="rhombus;whiteSpace=wrap;html=1;" vertex="1" parent="1">
          <mxGeometry x="325.25" y="528" width="176" height="130" as="geometry" />
        </mxCell>
        <mxCell id="98iDz8GCRPzG8NP3keVo-26" style="edgeStyle=orthogonalEdgeStyle;rounded=0;orthogonalLoop=1;jettySize=auto;html=1;exitX=0.5;exitY=1;exitDx=0;exitDy=0;entryX=0.5;entryY=0;entryDx=0;entryDy=0;" edge="1" parent="1" source="98iDz8GCRPzG8NP3keVo-14" target="98iDz8GCRPzG8NP3keVo-24">
          <mxGeometry relative="1" as="geometry" />
        </mxCell>
        <mxCell id="98iDz8GCRPzG8NP3keVo-27" style="edgeStyle=orthogonalEdgeStyle;rounded=0;orthogonalLoop=1;jettySize=auto;html=1;exitX=1;exitY=0.5;exitDx=0;exitDy=0;entryX=0.5;entryY=0;entryDx=0;entryDy=0;" edge="1" parent="1" source="98iDz8GCRPzG8NP3keVo-14" target="98iDz8GCRPzG8NP3keVo-25">
          <mxGeometry relative="1" as="geometry" />
        </mxCell>
        <mxCell id="98iDz8GCRPzG8NP3keVo-14" value="Does &lt;code&gt;row[i]&lt;/code&gt; contain special characters&amp;nbsp;&lt;div&gt;(&lt;code&gt; &lt;/code&gt;, &lt;code&gt;\t&lt;/code&gt;, &lt;code&gt;\n&lt;/code&gt;, &lt;code&gt;\r&lt;/code&gt;, &lt;code&gt;,&lt;/code&gt;)?&lt;div&gt;If &lt;code&gt;hasSpecialChar == true&lt;/code&gt;&lt;/div&gt;&lt;/div&gt;" style="rhombus;whiteSpace=wrap;html=1;" vertex="1" parent="1">
          <mxGeometry x="280" y="690" width="266.63" height="160" as="geometry" />
        </mxCell>
        <mxCell id="98iDz8GCRPzG8NP3keVo-18" value="print &quot;,&quot;" style="shape=parallelogram;perimeter=parallelogramPerimeter;whiteSpace=wrap;html=1;fixedSize=1;" vertex="1" parent="1">
          <mxGeometry x="622.5" y="630" width="120" height="60" as="geometry" />
        </mxCell>
        <mxCell id="98iDz8GCRPzG8NP3keVo-29" style="edgeStyle=orthogonalEdgeStyle;rounded=0;orthogonalLoop=1;jettySize=auto;html=1;exitX=0.5;exitY=1;exitDx=0;exitDy=0;entryX=0.5;entryY=0;entryDx=0;entryDy=0;" edge="1" parent="1" source="98iDz8GCRPzG8NP3keVo-24" target="98iDz8GCRPzG8NP3keVo-28">
          <mxGeometry relative="1" as="geometry" />
        </mxCell>
        <mxCell id="98iDz8GCRPzG8NP3keVo-24" value="print &quot; &#39; &quot; + row[i] + &quot; &#39; &quot;" style="shape=parallelogram;perimeter=parallelogramPerimeter;whiteSpace=wrap;html=1;fixedSize=1;" vertex="1" parent="1">
          <mxGeometry x="317" y="880" width="192.5" height="70" as="geometry" />
        </mxCell>
        <mxCell id="98iDz8GCRPzG8NP3keVo-31" style="edgeStyle=orthogonalEdgeStyle;rounded=0;orthogonalLoop=1;jettySize=auto;html=1;exitX=0.5;exitY=1;exitDx=0;exitDy=0;entryX=0.5;entryY=0;entryDx=0;entryDy=0;" edge="1" parent="1" source="98iDz8GCRPzG8NP3keVo-25" target="98iDz8GCRPzG8NP3keVo-28">
          <mxGeometry relative="1" as="geometry">
            <mxPoint x="520" y="955" as="targetPoint" />
          </mxGeometry>
        </mxCell>
        <mxCell id="98iDz8GCRPzG8NP3keVo-25" value="print row[i]" style="shape=parallelogram;perimeter=parallelogramPerimeter;whiteSpace=wrap;html=1;fixedSize=1;" vertex="1" parent="1">
          <mxGeometry x="570" y="860" width="170" height="70" as="geometry" />
        </mxCell>
        <mxCell id="xyDk_uZ-OIYQtleUEUWZ-3" style="edgeStyle=orthogonalEdgeStyle;rounded=0;orthogonalLoop=1;jettySize=auto;html=1;entryX=0;entryY=0.5;entryDx=0;entryDy=0;" edge="1" parent="1" source="98iDz8GCRPzG8NP3keVo-28" target="98iDz8GCRPzG8NP3keVo-7">
          <mxGeometry relative="1" as="geometry">
            <Array as="points">
              <mxPoint x="515" y="1130" />
              <mxPoint x="140" y="1130" />
              <mxPoint x="140" y="445" />
            </Array>
          </mxGeometry>
        </mxCell>
        <mxCell id="98iDz8GCRPzG8NP3keVo-28" value="Continue to the next value in the row until &lt;code&gt;i = row.size()&lt;/code&gt;" style="rounded=0;whiteSpace=wrap;html=1;" vertex="1" parent="1">
          <mxGeometry x="414" y="990" width="202" height="80" as="geometry" />
        </mxCell>
        <mxCell id="98iDz8GCRPzG8NP3keVo-39" style="edgeStyle=orthogonalEdgeStyle;rounded=0;orthogonalLoop=1;jettySize=auto;html=1;exitX=0.5;exitY=1;exitDx=0;exitDy=0;entryX=0.5;entryY=0;entryDx=0;entryDy=0;" edge="1" parent="1" source="98iDz8GCRPzG8NP3keVo-35" target="98iDz8GCRPzG8NP3keVo-38">
          <mxGeometry relative="1" as="geometry" />
        </mxCell>
        <mxCell id="98iDz8GCRPzG8NP3keVo-35" value="Print newline (endl)" style="shape=parallelogram;perimeter=parallelogramPerimeter;whiteSpace=wrap;html=1;fixedSize=1;" vertex="1" parent="1">
          <mxGeometry x="407.5" y="1190" width="215" height="90" as="geometry" />
        </mxCell>
        <mxCell id="98iDz8GCRPzG8NP3keVo-38" value="End" style="ellipse;whiteSpace=wrap;html=1;" vertex="1" parent="1">
          <mxGeometry x="455" y="1320" width="120" height="80" as="geometry" />
        </mxCell>
        <mxCell id="98iDz8GCRPzG8NP3keVo-40" value="True" style="text;html=1;align=center;verticalAlign=middle;resizable=0;points=[];autosize=1;strokeColor=none;fillColor=none;" vertex="1" parent="1">
          <mxGeometry x="407.5" y="510" width="50" height="30" as="geometry" />
        </mxCell>
        <mxCell id="98iDz8GCRPzG8NP3keVo-41" value="False" style="text;html=1;align=center;verticalAlign=middle;resizable=0;points=[];autosize=1;strokeColor=none;fillColor=none;" vertex="1" parent="1">
          <mxGeometry x="616" y="410" width="50" height="30" as="geometry" />
        </mxCell>
        <mxCell id="98iDz8GCRPzG8NP3keVo-44" value="True" style="text;html=1;align=center;verticalAlign=middle;resizable=0;points=[];autosize=1;strokeColor=none;fillColor=none;" vertex="1" parent="1">
          <mxGeometry x="525" y="578" width="50" height="30" as="geometry" />
        </mxCell>
        <mxCell id="98iDz8GCRPzG8NP3keVo-45" value="False" style="text;html=1;align=center;verticalAlign=middle;resizable=0;points=[];autosize=1;strokeColor=none;fillColor=none;" vertex="1" parent="1">
          <mxGeometry x="364" y="668" width="50" height="30" as="geometry" />
        </mxCell>
        <mxCell id="98iDz8GCRPzG8NP3keVo-46" value="False" style="text;html=1;align=center;verticalAlign=middle;resizable=0;points=[];autosize=1;strokeColor=none;fillColor=none;" vertex="1" parent="1">
          <mxGeometry x="570" y="750" width="50" height="30" as="geometry" />
        </mxCell>
        <mxCell id="98iDz8GCRPzG8NP3keVo-47" value="True" style="text;html=1;align=center;verticalAlign=middle;resizable=0;points=[];autosize=1;strokeColor=none;fillColor=none;" vertex="1" parent="1">
          <mxGeometry x="364" y="850" width="50" height="30" as="geometry" />
        </mxCell>
        <mxCell id="xyDk_uZ-OIYQtleUEUWZ-7" style="edgeStyle=orthogonalEdgeStyle;rounded=0;orthogonalLoop=1;jettySize=auto;html=1;exitX=0.5;exitY=1;exitDx=0;exitDy=0;entryX=1.08;entryY=0.533;entryDx=0;entryDy=0;entryPerimeter=0;" edge="1" parent="1" source="98iDz8GCRPzG8NP3keVo-18" target="98iDz8GCRPzG8NP3keVo-45">
          <mxGeometry relative="1" as="geometry" />
        </mxCell>
      </root>
    </mxGraphModel>
  </diagram>
</mxfile>
